<?xml version="1.0" encoding="UTF-8" standalone="no"?><svg xmlns="http://www.w3.org/2000/svg" xmlns:xlink="http://www.w3.org/1999/xlink" fill="#000000" height="24" preserveAspectRatio="xMidYMid meet" version="1" viewBox="0.0 0.0 24.0 24.0" width="24" zoomAndPan="magnify"><g><g id="change1_1"><path d="M 12 24 C 5.371094 24 0 18.628906 0 12 C 0 5.371094 5.371094 0 12 0 C 18.628906 0 24 5.371094 24 12 C 24 18.628906 18.628906 24 12 24" fill="inherit"/></g><g id="change2_1"><path d="M 13.414062 12 L 16.742188 8.671875 C 17.132812 8.28125 17.132812 7.648438 16.742188 7.257812 C 16.351562 6.867188 15.71875 6.867188 15.328125 7.257812 L 12 10.585938 L 8.671875 7.257812 C 8.28125 6.867188 7.648438 6.867188 7.257812 7.257812 C 6.867188 7.648438 6.867188 8.28125 7.257812 8.671875 L 10.585938 12 L 7.257812 15.328125 C 6.867188 15.71875 6.867188 16.351562 7.257812 16.742188 C 7.453125 16.9375 7.710938 17.035156 7.964844 17.035156 C 8.222656 17.035156 8.476562 16.9375 8.671875 16.742188 L 12 13.414062 L 15.328125 16.742188 C 15.523438 16.9375 15.777344 17.035156 16.035156 17.035156 C 16.289062 17.035156 16.546875 16.9375 16.742188 16.742188 C 17.132812 16.351562 17.132812 15.71875 16.742188 15.328125 L 13.414062 12" fill="#f8c535"/></g></g></svg>